<svg id="图层_1" xmlns="http://www.w3.org/2000/svg" viewBox="0 0 436.8 81.4"><style>.st0{fill:#EA5748;} .st1{fill:#3F3B3A;}</style><path class="st0" d="M128.6 47.2V34.3c0-1.8 1.4-3.2 3.2-3.2h7.1c1.8 0 3.2 1.4 3.2 3.2v12.9c0 1.8-1.4 3.2-3.2 3.2h-7.1c-1.7.1-3.2-1.4-3.2-3.2zm-36.8 0V34.3c0-1.8 1.4-3.2 3.2-3.2h7.1c1.8 0 3.2 1.4 3.2 3.2v12.9c0 1.8-1.4 3.2-3.2 3.2H95c-1.8.1-3.2-1.4-3.2-3.2zm15.9 34.2h54.8c11.7 0 21.7-5.5 28.7-15.5l-6.7-3.9c-6 8.1-12.9 11.6-21.9 11.6h-54.8c-9 0-16-3.5-21.9-11.6L79 65.9c7 10 17 15.5 28.7 15.5zM162.5 0h-54.8C96 0 86 5.5 79 15.5l6.7 3.9c6-8.1 12.9-11.6 21.9-11.6h54.8c9 0 16 3.5 21.9 11.6l6.7-3.9C184.2 5.5 174.2 0 162.5 0z"/><path class="st1" d="M21.3 41.2h-9.1v-.9h8.7v-2.1h-8.7v-.9h8.5v-7.6H.9v7.6h8.5v.9H.8v2.1h8.7v.9H.4v2.1h20.9v-2.1zM18 31.7v3.4h-5.9v-3.4H18zM3.6 35.1v-3.4h5.9v3.4H3.6zm8.6 14.1v-.8h9.1v-2h-9.1v-2.5H9.5v2.5H.4v2h9.1v.8H0v2.1h21.6v-2.1z"/><path class="st1" d="M7.4 32.5H5.1l.4 1.9h2.3zm8.7 1.9l.4-1.9h-2.3l-.3 1.9zM3 45.8l.4-1.9H1.1l-.3 1.9zm4.4 0l.4-1.9H5.5l-.4 1.9zm6.8 0h2.3l-.4-1.9h-2.2zm4.4 0h2.3l-.4-1.9h-2.3zm9.5-16.2V33h6.3c-.1 1.4-.2 3.6-.4 5.7-.3 5.5-3.2 8.7-7.2 9.9l1.6 3.1c3.9-1.5 8.4-4.8 8.9-12.6.2-2.4.3-4.9.4-6.2h7.9v18.2H49V29.6H28.1zm226-.4c-6.2 0-11.2 5-11.2 11.2s5 11.2 11.2 11.2c6.2 0 11.2-5 11.2-11.2s-5.1-11.2-11.2-11.2zm0 18.6c-4.1 0-7.4-3.3-7.4-7.4 0-4.1 3.3-7.4 7.4-7.4s7.4 3.3 7.4 7.4c0 4.1-3.4 7.4-7.4 7.4zm-36.8-19v22.5h3.8V37.9l6.6 6.6 6.6-6.6v13.4h3.8V28.8l-10.4 10.4zm189.9.4c-6.2 0-11.2 5-11.2 11.2 0 6.2 5 11.2 11.2 11.2s11.2-5 11.2-11.2c0-6.2-5-11.2-11.2-11.2zm0 18.6c-4.1 0-7.4-3.3-7.4-7.4 0-4.1 3.3-7.4 7.4-7.4s7.4 3.3 7.4 7.4c0 4.1-3.3 7.4-7.4 7.4zm-90-18.3h3.8v21.7h-3.8zm119.6 0h-17.1v3.9h6.7v17.9h3.8V33.4h6.6zm-95.7 13.4L327 28.8v22.5h3.8V37.9L344.9 52V29.6h-3.8zM307 29.5l-10.1 10.1V29.5h-3.8v21.8h3.8V41.2L307 51.3h5.2l-10.9-10.9 10.9-10.9zm-26.8 18.3c-4.1 0-7.4-3.3-7.4-7.4 0-4.1 3.3-7.4 7.4-7.4 2.1 0 3.9.8 5.3 2.2l2.7-2.7c-2-2-4.8-3.3-8-3.3-6.2 0-11.2 5-11.2 11.2 0 6.2 5 11.2 11.2 11.2 3.1 0 5.9-1.3 8-3.3l-2.7-2.7c-1.4 1.4-3.2 2.2-5.3 2.2zm82.8-7.4v3.8h3v2.4c-1.2.8-2.6 1.3-4.1 1.3-4.1 0-7.4-3.3-7.4-7.4 0-4.1 3.3-7.4 7.4-7.4 2.1 0 3.9.8 5.3 2.2l2.7-2.7c-2-2-4.8-3.3-8-3.3-6.2 0-11.2 5-11.2 11.2 0 6.2 5 11.2 11.2 11.2 3.1 0 5.9-1.3 8-3.3v-8H363zm27.1-.7c.8-1 1.2-2.3 1.2-3.7 0-3.5-2.9-6.4-6.4-6.4h-9.2v21.7h10.7c3.5 0 6.4-2.9 6.4-6.4 0-2.2-1.1-4.1-2.7-5.2zm-5.2-6.3c1.4 0 2.6 1.2 2.6 2.6 0 1.4-1.2 2.6-2.6 2.6h-5.4v-5.1h5.4zm1.5 14.1h-6.9v-5.1h6.9c1.4 0 2.6 1.2 2.6 2.6 0 1.3-1.1 2.5-2.6 2.5z"/></svg>